<?xml version="1.0" standalone="no"?>
<!DOCTYPE svg PUBLIC "-//W3C//DTD SVG 1.1//EN" "http://www.w3.org/Graphics/SVG/1.1/DTD/svg11.dtd" >
<!--
2013-9-30: Created.
-->
<svg>
<metadata>
Created by iconfont
</metadata>
<defs>

<font id="iconfont" horiz-adv-x="1024" >
  <font-face
    font-family="iconfont"
    font-weight="500"
    font-stretch="normal"
    units-per-em="1024"
    ascent="896"
    descent="-128"
  />
    <missing-glyph />
    
    <glyph glyph-name="bofangqixiayiqu" unicode="&#58941;" d="M792.183284 320.425192 98.655927 718.199661c-7.40976 4.222161-15.753799 4.222161-23.134907 0-7.364735-4.26821-11.558244-11.517311-11.558244-19.935028l0-795.621593c0-8.490372 4.193509-15.665795 11.558244-19.932981 7.381108-4.236488 15.72617-4.236488 23.134907-0.042979l693.527356 397.818471c7.366781 4.236488 11.605316 11.456936 11.605316 19.97596C803.788599 308.939603 799.550065 316.158005 792.183284 320.425192zM845.861834 721.366793l113.480564 0 0-841.838194-113.480564 0 0 841.838194Z"  horiz-adv-x="1024" />

    
    <glyph glyph-name="bofangqizanting" unicode="&#58942;" d="M511.844457-147.411983c-247.190869 0-447.578782 200.38075-447.578782 447.578782 0 247.190869 200.387913 447.618691 447.578782 447.618691s447.578782-200.428845 447.578782-447.618691C959.423239 52.968767 759.035326-147.411983 511.844457-147.411983L511.844457-147.411983zM368.275621 74.481733l62.210877 0L430.486498 525.697345l-62.210877 0L368.275621 74.481733zM591.140455 525.858004l0-451.215612 62.210877 0L653.351332 525.858004 591.140455 525.858004z"  horiz-adv-x="1024" />

    
    <glyph glyph-name="bofangqibofang" unicode="&#58896;" d="M928 300c0-35.2-20.352-65.92-50.624-82.624l0 0-624.704-415.36c-0.256-0.192-0.576-0.32-0.832-0.448l-0.384-0.256 0 0C236.096-207.136 218.176-212 199.04-212c-56.896 0-103.04 43.008-103.04 96l0 0 0 832 0 0C96 768.992 142.144 812 199.04 812c19.136 0 37.056-4.864 52.416-13.376l0 0 0.384-0.192c0.256-0.192 0.512-0.32 0.832-0.448l624.704-415.36 0 0C907.648 365.92 928 335.2 928 300z"  horiz-adv-x="1024" />

    
    <glyph glyph-name="bofangqixiashou" unicode="&#58901;" d="M64 693.856l0-787.648 0 0C64-159.072 114.112-212 176-212c21.824 0 42.112 6.592 59.328 17.984l0 0 513.792 305.408 0-215.552c0-65.28 36.992-107.776 98.816-107.776S960-159.072 960-93.856L960 693.856C960 759.072 909.824 812 848 812s-98.816-42.56-98.816-107.776l0-269.504L235.392 794.016l0 0C218.112 805.408 197.824 812 176 812 114.112 812 64 759.072 64 693.856L64 693.856z"  horiz-adv-x="1024" />

    
    <glyph glyph-name="bofangqikaishi" unicode="&#58887;" d="M32.131929 839.442445C32.131929 792.199463 32.131929-37.467705 32.131929-70.035207 32.131929-112.319351 75.890321-143.814672 119.112624-119.087494 153.757477-99.252143 903.011059 300.604411 962.115045 334.780185 1000.9146 357.228977 1000.244487 410.838034 962.115045 433.286827 919.562856 458.416072 167.695831 860.282966 117.303318 888.159675 80.447091 908.66514 32.131929 886.082324 32.131929 839.442445Z"  horiz-adv-x="1024" />

    
    <glyph glyph-name="bofangqizanting1" unicode="&#58897;" d="M796.444444 839.111111c-31.630222 0-56.888889-25.486222-56.888889-56.945778l0-796.330667C739.555556-45.852444 764.984889-71.111111 796.444444-71.111111c31.630222 0 56.888889 25.486222 56.888889 56.945778L853.333333 782.165333C853.333333 813.795556 827.904 839.111111 796.444444 839.111111zM227.555556 839.111111C195.925333 839.111111 170.666667 813.624889 170.666667 782.165333l0-796.330667C170.666667-45.852444 196.152889-71.111111 227.555556-71.111111c31.630222 0 56.888889 25.486222 56.888889 56.945778L284.444444 782.165333C284.444444 813.795556 258.958222 839.111111 227.555556 839.111111z"  horiz-adv-x="1024" />

    
    <glyph glyph-name="bofangqishuaxin" unicode="&#58898;" d="M568.888889 839.111111C336.839111 839.111111 145.863111 665.315556 117.816889 440.888889L0 440.888889l170.666667-227.555556 170.666667 227.555556L233.813333 440.888889C261.063111 602.055111 399.928889 725.333333 568.888889 725.333333c188.472889 0 341.333333-152.860444 341.333333-341.333333s-152.860444-341.333333-341.333333-341.333333c-84.024889 0-160.995556 30.378667-220.444444 80.725333l-57.571556-99.726222C367.786667-35.783111 464.213333-71.111111 568.888889-71.111111c251.335111 0 455.111111 203.776 455.111111 455.111111C1024 635.335111 820.224 839.111111 568.888889 839.111111z"  horiz-adv-x="1024" />

    
    <glyph glyph-name="bofangqishengyin" unicode="&#58899;" d="M526.222222 839.054222 526.222222 839.054222C519.907556 839.111111 513.308444 837.290667 507.164444 833.365333l-231.196444-216.746667C271.246222 613.319111 265.557333 611.555556 259.811556 611.555556L56.888889 611.555556C25.486222 611.555556 0 586.069333 0 554.666667l0-341.333333c0-31.402667 25.486222-56.888889 56.888889-56.888889l202.922667 0c5.802667 0 11.434667-1.763556 16.156444-5.063111l231.196444-216.803556C513.308444-69.290667 519.907556-71.111111 526.222222-71.111111 548.579556-71.111111 568.888889-48.355556 568.888889-17.123556L568.888889 785.066667C568.888889 816.355556 548.579556 839.054222 526.222222 839.054222zM512 8.078222l-197.12 184.832c-2.048 1.934222-4.266667 3.697778-6.599111 5.347556C293.944889 208.099556 277.219556 213.333333 259.811556 213.333333L56.888889 213.333333 56.888889 554.666667l202.922667 0c17.408 0 34.133333 5.233778 48.469333 15.132444 2.332444 1.592889 4.551111 3.356444 6.599111 5.290667L512 759.921778 512 8.078222zM796.444444 398.904889c0 116.565333-70.257778 216.576-170.666667 260.494222l0-64.568889c67.697778-39.424 113.777778-112.014222 113.777778-195.868444 0-83.854222-46.08-156.444444-113.777778-195.811556l0-64.568889C726.186667 182.385778 796.444444 282.339556 796.444444 398.904889zM682.666667 839.111111l0-58.766222c164.295111-49.095111 284.444444-201.386667 284.444444-381.44 0-179.996444-120.149333-332.344889-284.444444-381.44l0-58.709333c196.209778 50.631111 341.333333 228.238222 341.333333 440.149333C1024 610.929778 878.876444 788.536889 682.666667 839.111111z"  horiz-adv-x="1024" />

    
    <glyph glyph-name="bofangqizhankai" unicode="&#58971;" d="M494.08 402.432c5.12 5.12 11.776 7.68 17.92 7.68 6.656 0 13.312-2.56 17.92-7.68l224.256-224.256c10.24-10.24 10.24-26.112 0-36.352s-26.112-10.24-36.352 0L512 348.16l-205.824-205.824c-10.24-10.24-26.112-10.24-36.352 0s-10.24 26.112 0 36.352l224.256 223.744zM717.824 366.08L512 571.904l-205.824-205.824c-10.24-10.24-26.112-10.24-36.352 0s-10.24 26.112 0 36.352l224.256 224.256c5.12 5.12 11.776 7.68 17.92 7.68 6.656 0 13.312-2.56 17.92-7.68l224.256-224.256c10.24-10.24 10.24-26.112 0-36.352s-26.112-10.24-36.352 0z"  horiz-adv-x="1024" />

    
    <glyph glyph-name="bofangqixiayiqu1" unicode="&#58880;" d="M792.183 404.425l-693.527 397.774c-7.41 4.222-15.754 4.222-23.135 0-7.365-4.268-11.558-11.517-11.558-19.935v-795.622c0-8.49 4.194-15.666 11.558-19.933 7.381-4.236 15.726-4.236 23.135-0.042l693.527 397.818c7.367 4.236 11.605 11.457 11.605 19.976 0 8.478-4.239 15.696-11.605 19.964zM845.863 805.367h113.481v-841.837h-113.481v841.837z"  horiz-adv-x="1024" />

    
    <glyph glyph-name="bofangqixiashou1" unicode="&#58881;" d="M960-9.856v787.648c0 65.28-50.112 118.208-112 118.208-21.824 0-42.112-6.592-59.328-17.984v0l-513.792-305.408v215.552c0 65.28-36.992 107.776-98.816 107.777s-112.064-52.864-112.064-118.080v-787.711c0-65.216 50.176-118.144 112-118.143s98.816 42.56 98.816 107.777v269.504l513.792-359.296c17.28-11.392 37.568-17.984 59.392-17.984 61.887 0 112 52.928 112 118.143v0z"  horiz-adv-x="1024" />

    
    <glyph glyph-name="bofangqi-xuanji" unicode="&#59032;" d="M805.236364 430.545455h-167.563637C581.818182 430.545455 535.272727 477.090909 535.272727 532.945455v51.2C535.272727 640 581.818182 686.545455 637.672727 686.545455h167.563637C861.090909 686.545455 907.636364 640 907.636364 584.145455v-51.2c0-55.854545-46.545455-102.4-102.4-102.4z m-167.563637 209.454545c-30.254545 0-55.854545-25.6-55.854545-55.854545v-51.2c0-30.254545 25.6-55.854545 55.854545-55.854546h167.563637c30.254545 0 55.854545 25.6 55.854545 55.854546v51.2c0 30.254545-25.6 55.854545-55.854545 55.854545h-167.563637zM386.327273 430.545455H218.763636C162.909091 430.545455 116.363636 477.090909 116.363636 532.945455v51.2C116.363636 640 162.909091 686.545455 218.763636 686.545455h167.563637C442.181818 686.545455 488.727273 640 488.727273 584.145455v-51.2c0-55.854545-46.545455-102.4-102.4-102.4z m-167.563637 209.454545C188.509091 640 162.909091 614.4 162.909091 584.145455v-51.2C162.909091 502.690909 188.509091 477.090909 218.763636 477.090909h167.563637c30.254545 0 55.854545 25.6 55.854545 55.854546v51.2c0 30.254545-25.6 55.854545-55.854545 55.854545H218.763636zM386.327273 128H218.763636C162.909091 128 116.363636 174.545455 116.363636 230.4v51.2C116.363636 337.454545 162.909091 384 218.763636 384h167.563637c55.854545 0 102.4-46.545455 102.4-102.4v-51.2c0-55.854545-46.545455-102.4-102.4-102.4z m-167.563637 209.454545C188.509091 337.454545 162.909091 311.854545 162.909091 281.6v-51.2C162.909091 200.145455 188.509091 174.545455 218.763636 174.545455h167.563637c30.254545 0 55.854545 25.6 55.854545 55.854545v51.2c0 30.254545-25.6 55.854545-55.854545 55.854545H218.763636zM805.236364 128h-167.563637C581.818182 128 535.272727 174.545455 535.272727 230.4v51.2c0 55.854545 46.545455 102.4 102.4 102.4h167.563637c55.854545 0 102.4-46.545455 102.4-102.4v-51.2c0-55.854545-46.545455-102.4-102.4-102.4z m-167.563637 209.454545c-30.254545 0-55.854545-25.6-55.854545-55.854545v-51.2c0-30.254545 25.6-55.854545 55.854545-55.854545h167.563637c30.254545 0 55.854545 25.6 55.854545 55.854545v51.2c0 30.254545-25.6 55.854545-55.854545 55.854545h-167.563637z"  horiz-adv-x="1024" />

    
    <glyph glyph-name="bofangqi-bofang" unicode="&#59044;" d="M744.727273 344.436364L325.818182 100.072727c-30.254545-18.618182-69.818182 4.654545-69.818182 39.563637v488.727272c0 34.909091 39.563636 58.181818 69.818182 39.563637l418.909091-244.363637c30.254545-16.290909 30.254545-62.836364 0-79.127272z"  horiz-adv-x="1024" />

    
    <glyph glyph-name="bofangqi-zanting" unicode="&#59045;" d="M442.181818 186.181818c0-37.236364-30.254545-69.818182-69.818182-69.818182s-69.818182 30.254545-69.818181 69.818182v395.636364c0 37.236364 30.254545 69.818182 69.818181 69.818182s69.818182-30.254545 69.818182-69.818182v-395.636364z m279.272727 0c0-37.236364-30.254545-69.818182-69.818181-69.818182s-69.818182 30.254545-69.818182 69.818182v395.636364c0 37.236364 30.254545 69.818182 69.818182 69.818182s69.818182-30.254545 69.818181-69.818182v-395.636364z"  horiz-adv-x="1024" />

    
    <glyph glyph-name="bofangqi-xiayiji" unicode="&#59046;" d="M721.454545 344.436364L302.545455 100.072727c-30.254545-18.618182-69.818182 4.654545-69.818182 39.563637v488.727272c0 34.909091 39.563636 58.181818 69.818182 39.563637l418.90909-244.363637c30.254545-16.290909 30.254545-62.836364 0-79.127272zM791.272727 211.781818c0-32.581818-30.254545-60.509091-69.818182-60.509091s-69.818182 27.927273-69.818181 60.509091V556.218182c0 32.581818 30.254545 60.509091 69.818181 60.509091s69.818182-27.927273 69.818182-60.509091v-344.436364z"  horiz-adv-x="1024" />

    
    <glyph glyph-name="bofangqi_bofang" unicode="&#58909;" d="M205.092713 876.818295l735.298709-434.785324c57.545116-31.969509 57.545116-89.514625 0-121.484134L205.092713-114.236487c-57.545116-31.969509-102.302429-6.393902-102.302429 57.545116V819.273178c0 63.939018 44.757313 95.908527 102.302429 57.545117z"  horiz-adv-x="1024" />

    
    <glyph glyph-name="bofangqi_zanting" unicode="&#58910;" d="M659.2 896h217.6c25.6 0 44.8-19.2 44.8-44.8v-928c0-25.6-19.2-44.8-44.8-44.8h-217.6c-25.6 0-44.8 19.2-44.8 44.8V851.2c0 25.6 19.2 44.8 44.8 44.8z m-512 0h217.6c25.6 0 44.8-19.2 44.8-44.8v-928c0-25.6-19.2-44.8-44.8-44.8H147.2c-25.6 0-44.8 19.2-44.8 44.8V851.2c0 25.6 19.2 44.8 44.8 44.8z"  horiz-adv-x="1024" />

    
    <glyph glyph-name="bofangqi" unicode="&#58913;" d="M530.432-128c-282.624 0-512 229.376-512 512s229.376 512 512 512 512-229.376 512-512-230.4-512-512-512zM776.192 384c0-15.36-9.216-28.672-22.528-36.864l-276.48-183.296c-7.168-4.096-14.336-6.144-23.552-6.144-25.6 0-46.08 19.456-46.08 41.984V568.32c0 23.552 20.48 41.984 46.08 41.984 8.192 0 16.384-2.048 23.552-6.144l276.48-183.296c13.312-7.168 22.528-21.504 22.528-36.864"  horiz-adv-x="1042" />

    
    <glyph glyph-name="bofangqi-quanping" unicode="&#58904;" d="M490.496 686.762667c0 11.605333-9.898667 21.504-21.845333 21.504H209.578667c-5.802667 0-11.264-2.389333-15.018667-6.485334-4.437333-3.754667-6.826667-9.216-6.826667-15.018666v-259.072c0-11.605333 9.557333-21.845333 21.504-21.845334 11.605333 0 21.504 9.898667 21.504 21.845334V634.538667L447.146667 418.133333c8.874667-8.874667 22.528-8.874667 30.72-0.341333 8.192 8.192 8.192 22.186667-0.341334 30.72L261.461333 664.917333h207.189334c11.605333 0 21.845333 9.898667 21.845333 21.845334zM814.762667 362.496c-11.605333 0-21.504-9.898667-21.504-21.845333v-207.189334L576.853333 349.866667c-8.874667 8.874667-22.528 8.874667-30.72 0.341333-8.192-8.192-8.192-22.186667 0.341334-30.72l216.405333-216.405333h-207.189333c-11.605333 0-21.845333-9.557333-21.845334-21.504 0-11.605333 9.898667-21.504 21.845334-21.504h259.072c5.802667 0 11.264 2.389333 15.018666 6.485333 4.096 4.096 6.485333 9.216 6.485334 15.36v259.072c0 11.264-9.557333 21.504-21.504 21.504z"  horiz-adv-x="1024" />

    
    <glyph glyph-name="bofangqi-zanting1" unicode="&#58905;" d="M365.568 725.333333c-12.970667 0-24.234667-10.922667-24.234667-24.234666v-634.197334c0-13.653333 10.922667-24.234667 24.234667-24.234666 12.970667 0 24.234667 10.922667 24.234667 24.234666V701.098667c0.341333 13.653333-10.581333 24.234667-24.234667 24.234666zM658.432 725.333333c-12.970667 0-24.234667-10.922667-24.234667-24.234666v-634.197334c0-13.653333 10.922667-24.234667 24.234667-24.234666 12.970667 0 24.234667 10.922667 24.234667 24.234666V701.098667c0 13.653333-10.922667 24.234667-24.234667 24.234666z"  horiz-adv-x="1024" />

    
    <glyph glyph-name="bofangqi-" unicode="&#58902;" d="M382.147025 705.629091a42.589091 42.589091 0 0 0 72.843637-30.254546v-597.178181a42.821818 42.821818 0 0 0-72.843637-30.254546l-158.254545 158.254546H42.597935a41.192727 41.192727 0 0 0-30.254546 12.334545 41.192727 41.192727 0 0 0-12.334545 30.254546v256a41.192727 41.192727 0 0 0 12.334545 30.254545 41.192727 41.192727 0 0 0 30.254546 11.869091h181.527272z m-12.334545-524.334546v390.981819l-97.745455-97.745455a41.192727 41.192727 0 0 0-30.254545-12.334545H85.419753V290.909091h156.392727a41.192727 41.192727 0 0 0 30.254545-12.334546z m312.785455 195.49091a156.16 156.16 0 0 1-19.549091 77.032727 149.410909 149.410909 0 0 1-55.156364 56.785454 46.545455 46.545455 0 0 1-32.814545 5.352728 37.701818 37.701818 0 0 1-25.832728-18.618182 45.149091 45.149091 0 0 1-5.352727-32.814546 37.701818 37.701818 0 0 1 19.549091-26.763636 62.836364 62.836364 0 0 0 24.901818-24.901818 71.912727 71.912727 0 0 0 8.843636-35.607273 67.956364 67.956364 0 0 0-30.254545-58.647273A45.149091 45.149091 0 0 1 549.245207 290.909091a38.632727 38.632727 0 0 1 6.283637-31.185455 42.123636 42.123636 0 0 1 27.461818-17.687272 38.4 38.4 0 0 1 32.116363 7.214545 148.247273 148.247273 0 0 1 49.803637 55.156364 154.065455 154.065455 0 0 1 17.687273 72.378182z m30.254545-268.334546a327.447273 327.447273 0 0 1 103.098182 116.363636 320.465455 320.465455 0 0 1 37.236363 151.04 315.810909 315.810909 0 0 1-42.58909 160.814546 334.661818 334.661818 0 0 1-113.803637 118.225454 46.545455 46.545455 0 0 1-32.814545 5.352728 37.701818 37.701818 0 0 1-25.832728-18.618182 45.149091 45.149091 0 0 1-5.352727-32.814546 37.701818 37.701818 0 0 1 18.850909-25.832727 232.727273 232.727273 0 0 0 84.48-87.04A238.312727 238.312727 0 0 0 768.008844 376.785455a240.872727 240.872727 0 0 0-27.461819-111.941819 232.727273 232.727273 0 0 0-77.265454-87.04 42.589091 42.589091 0 0 1-9.774546-58.647272 42.123636 42.123636 0 0 1 27.461819-17.687273 38.4 38.4 0 0 1 31.883636 6.981818zM1024.008844 376.785455a482.210909 482.210909 0 0 1-64.930909 244.363636 506.181818 506.181818 0 0 1-173.381819 180.363636 46.545455 46.545455 0 0 1-32.814545 5.352728 37.701818 37.701818 0 0 1-25.832727-18.618182A45.149091 45.149091 0 0 1 721.463389 756.363636a37.701818 37.701818 0 0 1 19.549091-26.763636 412.16 412.16 0 0 0 150.109091-543.185455 414.021818 414.021818 0 0 0-130.56-148.48 38.865455 38.865455 0 0 1-17.454546-26.298181 38.4 38.4 0 0 1 7.214546-32.116364 45.149091 45.149091 0 0 1 27.461818-17.687273 37.003636 37.003636 0 0 1 31.185455 7.214546A494.545455 494.545455 0 0 1 1024.008844 376.785455z"  horiz-adv-x="1024" />

    
    <glyph glyph-name="bofangqibofang1" unicode="&#58882;" d="M181.475556 320.34133299999996L702.293333-31.51644399999998C754.232889-66.61688900000001 796.444444-44.259555999999975 796.444444 18.54577800000004l0 730.794667c0 62.862222-42.154667 85.219556-94.151111 50.11911101l-520.760889-351.85777801C129.536 412.501333 129.479111 355.49866699999995 181.475556 320.34133299999996z"  horiz-adv-x="1024" />

    
    <glyph glyph-name="bofangqi-banping" unicode="&#58906;" d="M170.987-3.511c8.4-0.12 16.428 3.021 22.499 8.918l235.82 229.119-2.988-207.271c-0.261-18.164 14.227-33.075 32.392-33.338 18.164-0.262 33.076 14.227 33.338 32.391l4.091 283.814c0.119 0.944 0.239 1.888 0.25 2.727 0.058 3.99-1.048 7.473-2.052 10.638-0.503 1.477-1.008 2.955-1.722 4.436-0.203 0.528-0.403 1.266-0.599 2.109-0.394 1.896-0.986 4.425-3.163 6.557-1.657 1.599-3.643 2.153-4.9 2.487-0.313 0.108-0.837 0.222-1.044 0.328-4.053 3-8.75 5.063-13.987 5.979l-0.315 0.004c-0.104 0.106-0.104 0.106-0.209 0.108-0.418 0.112-1.15 0.332-1.989 0.344l-0.105 0.002c-0.522 0.217-1.359 0.439-2.408 0.455L177.14 350.43c-18.165 0.262-33.08-14.331-33.341-32.497-0.262-18.165 14.227-33.077 32.392-33.339l210.734-3.037L149.4 50.783c-6.07-5.899-9.44-13.832-9.562-22.232-0.122-8.4 3.02-16.427 8.917-22.498 5.899-6.072 13.726-9.44 22.232-9.564zM541.168 427.315v-0.105c0-0.84 0.21-1.575 0.314-1.994 0-0.105 0-0.105 0.105-0.211v-0.314c0.84-5.251 2.835-9.977 5.775-14.071 0.105-0.21 0.21-0.735 0.315-1.051 0.315-1.26 0.84-3.255 2.415-4.936 2.101-2.205 4.62-2.835 6.511-3.255 0.84-0.21 1.575-0.42 2.101-0.63 1.47-0.735 2.94-1.261 4.41-1.785 3.78-1.261 8.19-2.73 13.337-2.101H860.4c18.167 0 32.869 14.701 32.869 32.868S878.567 462.6 860.4 462.6H653.005l232.493 232.492c12.391 12.393 12.391 32.449 0 44.734-5.985 5.986-13.967 9.242-22.367 9.242-8.506 0-16.382-3.256-22.367-9.242L606.589 505.653V716.41c0 18.166-14.701 32.868-32.867 32.868-18.167 0-32.868-14.702-32.868-32.868v-286.68c-0.106-1.049 0.209-1.889 0.314-2.415z"  horiz-adv-x="1024" />

    
    <glyph glyph-name="bofangqizujian" unicode="&#58960;" d="M512 718.769231m-78.769231 0a78.769231 78.769231 0 1 1 157.538462 0 78.769231 78.769231 0 1 1-157.538462 0ZM512 384m-78.769231 0a78.769231 78.769231 0 1 1 157.538462 0 78.769231 78.769231 0 1 1-157.538462 0ZM512 49.230769m-78.769231 0a78.769231 78.769231 0 1 1 157.538462 0 78.769231 78.769231 0 1 1-157.538462 0Z"  horiz-adv-x="1024" />

    
    <glyph glyph-name="bofangqizhankai1" unicode="&#58884;" d="M529.92 365.568c-5.12-5.12-11.776-7.67999999-17.92-7.68-6.65600001 0-13.312 2.56-17.92 7.68l-224.256 224.256c-10.24 10.24-10.24 26.112 0 36.352s26.112 10.24 36.352 0L512 419.84l205.824 205.824c10.24 10.24 26.112 10.24 36.352 0s10.24-26.112 0-36.352l-224.256-223.744zM306.176 401.92L512 196.096l205.824 205.824c10.24 10.24 26.112 10.24 36.352 0s10.24-26.112 0-36.352l-224.256-224.256c-5.12-5.12-11.776-7.67999999-17.92-7.68-6.65600001 0-13.312 2.56-17.92 7.68l-224.256 224.256c-10.24 10.24-10.24 26.112 0 36.352s26.112 10.24 36.352 0z"  horiz-adv-x="1024" />

    
    <glyph glyph-name="bofangqi1" unicode="&#59116;" d="M2925.714286 749.714286c43.885714 0 73.142857-29.257143 73.142857-73.142857v-585.142858c0-43.885714-29.257143-73.142857-73.142857-73.142857s-73.142857 29.257143-73.142857 73.142857V676.571429c0 43.885714 29.257143 73.142857 73.142857 73.142857zM629.028571 749.714286c43.885714 0 73.142857-29.257143 73.142858-73.142857v-585.142858c0-43.885714-29.257143-73.142857-73.142858-73.142857s-73.142857 29.257143-73.142857 73.142857V676.571429c0 43.885714 36.571429 73.142857 73.142857 73.142857zM3364.571429 896c43.885714 0 73.142857-29.257143 73.142857-73.142857v-877.714286c0-43.885714-29.257143-73.142857-73.142857-73.142857s-73.142857 29.257143-73.142858 73.142857V822.857143c0 43.885714 29.257143 73.142857 73.142858 73.142857zM73.142857 896c43.885714 0 73.142857-29.257143 73.142857-73.142857v-877.714286c0-43.885714-29.257143-73.142857-73.142857-73.142857s-73.142857 29.257143-73.142857 73.142857V822.857143c0 43.885714 29.257143 73.142857 73.142857 73.142857z"  horiz-adv-x="3437" />

    
    <glyph glyph-name="bofangqikaishi1" unicode="&#58914;" d="M303.104 737.21c-50.339 29.254-115.293-8.099-115.293-66.56v-573.277c0-58.461 63.325-95.814 115.293-66.583l495.313 285.835c50.34 30.86 50.34 105.566 0 134.796l-495.313 285.79z"  horiz-adv-x="1024" />

    
    <glyph glyph-name="bofangqi2" unicode="&#58911;" d="M242.076254-128A144.865882 144.865882 0 0 0 97.812724 16.564706V751.435294a144.865882 144.865882 0 0 0 144.26353 144.564706 150.588235 150.588235 0 0 0 83.727058-27.858824l539.407059-363.670588a145.468235 145.468235 0 0 0 60.235294-116.254117 138.992941 138.992941 0 0 0-60.235294-116.254118L321.135077-99.689412a126.945882 126.945882 0 0 0-79.058823-28.310588z m0 0"  horiz-adv-x="1024" />

    
    <glyph glyph-name="juxingkaobei" unicode="&#58937;" d="M716.8-128V-25.600000000000023h204.8V179.20000000000005h102.4v-307.2z m-614.4 0H0V179.20000000000005h102.4v-204.8h204.8v-102.4z m819.2 716.8V793.6H716.8V896h307.2v-307.2zM0 588.8V896h307.2v-102.4H102.4v-204.8z"  horiz-adv-x="1024" />

    
    <glyph glyph-name="bofangqi_zanting1" unicode="&#58943;" d="M409.6 742.4a51.2 51.2 0 0 0 51.2-51.2v-614.4a51.2 51.2 0 0 0-102.4 0V691.2a51.2 51.2 0 0 0 51.2 51.2z m256 0a51.2 51.2 0 0 0 51.2-51.2v-614.4a51.2 51.2 0 0 0-102.4 0V691.2a51.2 51.2 0 0 0 51.2 51.2z"  horiz-adv-x="1024" />

    
    <glyph glyph-name="bofangqi-zanting2" unicode="&#58964;" d="M68.266667 784.247467v-783.633067a102.4 102.4 0 0 1 154.7264-87.995733l659.080533 391.816533a102.4 102.4 0 0 1 0 176.0256L222.993067 872.311467A102.4 102.4 0 0 1 68.266667 784.213333z"  horiz-adv-x="1024" />

    
    <glyph glyph-name="bofangqi_jingyin" unicode="&#58951;" d="M431.2064 789.0944a37.888 37.888 0 0 1-41.6768-8.704L198.656 587.9808H103.936a38.3488 38.3488 0 0 1-38.656-38.5024v-331.008c0-21.4528 17.152-38.5024 38.656-38.5024h94.72l191.5904-192.4096c7.424-7.4752 17.408-11.52 27.5456-11.52a32.2048 32.2048 0 0 1 13.4144 2.8672c14.5408 6.0416 22.6304 20.1728 22.6304 35.8912V753.152c0 15.7184-8.0896 29.9008-22.6304 35.9424zM376.1152 108.9024l-135.1168 137.216a35.9424 35.9424 0 0 1-26.112 11.5712H142.9504V510.2592h71.8336a35.9424 35.9424 0 0 1 26.1632 11.6224l135.168 137.216v-550.1952zM768.768 384l90.88-90.88a36.7104 36.7104 0 1 0-51.968-51.968L716.8 332.032l-90.88-90.88a36.7104 36.7104 0 1 0-51.968 51.968L664.832 384 573.952 474.88a36.7104 36.7104 0 1 0 51.968 51.968L716.8 435.968l90.88 90.88a36.7104 36.7104 0 1 0 51.968-51.968L768.768 384z"  horiz-adv-x="1024" />

    
    <glyph glyph-name="bofangqi_yinliang" unicode="&#58952;" d="M431.2064 789.0944a37.888 37.888 0 0 1-41.6768-8.704L198.656 587.9808H103.936a38.3488 38.3488 0 0 1-38.656-38.5024v-331.008c0-21.4528 17.152-38.5024 38.656-38.5024h94.72l191.5904-192.4096c7.424-7.4752 17.408-11.52 27.5456-11.52a32.2048 32.2048 0 0 1 13.4144 2.8672c14.5408 6.0416 22.6304 20.1728 22.6304 35.8912V753.152c0 15.7184-8.0896 29.9008-22.6304 35.9424zM376.1152 108.9024l-135.1168 137.216a35.9424 35.9424 0 0 1-26.112 11.5712H142.9504V510.2592h71.8336a35.9424 35.9424 0 0 1 26.1632 11.6224l135.168 137.216v-550.1952z m205.824 110.592a38.7584 38.7584 0 0 0-54.9376-3.072 38.8608 38.8608 0 0 0-3.072 54.8352c97.024 108.544 10.1376 213.9136-0.1024 225.536a38.912 38.912 0 0 0 58.0608 51.712c50.8928-56.9344 116.3776-198.912 0-329.0112z m117.4016-103.936a38.7584 38.7584 0 0 0-54.8864-3.1232 38.8608 38.8608 0 0 0-3.072 54.8864c191.488 214.1696 7.8848 424.448 0 433.3056a38.8608 38.8608 0 1 0 57.9584 51.8144c2.4064-2.6624 237.312-271.5136 0-536.9344z"  horiz-adv-x="1024" />

    
    <glyph glyph-name="alert" unicode="&#59120;" d="M128.085333 18.773333a128 128 0 0 0-42.496 175.957334L402.773333 713.813333a128 128 0 0 0 218.453334 0l317.184-519.04A128 128 0 0 0 829.184 0H194.816a128 128 0 0 0-66.730667 18.773333zM829.184 85.333333a42.666667 42.666667 0 0 1 36.394667 64.896L548.394667 669.269333a42.666667 42.666667 0 0 1-72.789334 0L158.421333 150.229333A42.666667 42.666667 0 0 1 194.816 85.333333h634.368zM469.333333 512h85.333334v-256h-85.333334V512z m0-298.666667h85.333334v-85.333333h-85.333334v85.333333z"  horiz-adv-x="1024" />

    
    <glyph glyph-name="back1" unicode="&#59122;" d="M238.336 384l374.528-374.528 60.330667 60.330667-313.984 314.453333 310.954666 310.912-60.330666 60.330667z"  horiz-adv-x="1024" />

    
    <glyph glyph-name="attach" unicode="&#59123;" d="M396.501333 524.501333l60.330667 60.330667 234.666667-234.666667a133.162667 133.162667 0 0 0-188.330667-188.330666l-298.666667 298.666666a193.536 193.536 0 0 0 0 273.664 192.256 192.256 0 0 0 273.024-1.152l341.248-347.050666a240.512 240.512 0 0 0-2.858666-340.138667l-2.005334-1.92a253.568 253.568 0 0 0-349.098666-2.133333L269.482667 224.853333l58.368 62.293334 195.328-183.125334a168.234667 168.234667 0 0 1 231.594666 1.408l1.28 1.28a155.178667 155.178667 0 0 1 1.877334 219.434667L416.682667 673.194667l-0.64 0.64a106.922667 106.922667 0 0 1-151.210667 0c-42.24-42.24-42.24-110.762667 0-153.002667l298.666667-298.666667a47.829333 47.829333 0 1 1 67.669333 67.669334l-234.666667 234.666666z"  horiz-adv-x="1024" />

    
    <glyph glyph-name="calendar" unicode="&#59124;" d="M213.333333 85.333333h597.333334V682.666667H213.333333v-597.333334zM896.128 768L896 85.12C896 38.101333 858.026667 0 810.794667 0H213.205333A85.162667 85.162667 0 0 0 128 85.12L127.872 768H256V853.333333h85.333333v-85.333333h341.333334V853.333333h85.333333v-85.333333h128.128zM298.666667 426.666667h85.333333v-85.333334H298.666667v85.333334z m170.666666 0h85.333334v-85.333334h-85.333334v85.333334z m170.666667 0h85.333333v-85.333334h-85.333333v85.333334z m-341.333333-170.666667h85.333333v-85.333333H298.666667v85.333333z m170.666666 0h85.333334v-85.333333h-85.333334v85.333333z m170.666667 0h85.333333v-85.333333h-85.333333v85.333333z"  horiz-adv-x="1024" />

    
    <glyph glyph-name="down" unicode="&#59127;" d="M512 110.336L137.472 484.864l60.330667 60.330667 314.453333-313.984 310.912 310.954666 60.330667-60.330666z"  horiz-adv-x="1024" />

    
    <glyph glyph-name="edit" unicode="&#59128;" d="M810.666667 597.333333l-170.666667 170.666667L85.333333 213.333333v-170.666666h170.666667L810.666667 597.333333zM213.333333 128H170.666667v42.666667L640 640l42.666667-42.666667L213.333333 128z m170.666667-85.333333l85.333333 85.333333h512l-85.333333-85.333333H384z"  horiz-adv-x="1024" />

    
    <glyph glyph-name="like1" unicode="&#59134;" d="M540.294737 57.397895l1.347368-1.401263 366.106948 366.106947a212.884211 212.884211 0 0 1-301.056 301.056L540.294737 656.707368 473.896421 723.159579a212.884211 212.884211 0 1 1-301.056-301.056l367.454316-364.759579z m-443.661474 288.498526a320.673684 320.673684 0 0 0 443.661474 462.901895 320.673684 320.673684 0 0 0 443.661474-462.95579l-443.661474-440.912842-443.661474 440.966737z"  horiz-adv-x="1078" />

    
    <glyph glyph-name="more" unicode="&#59136;" d="M426.666667 85.333333a85.333333 85.333333 0 1 0 170.666666 0 85.333333 85.333333 0 0 0-170.666666 0z m0 298.666667a85.333333 85.333333 0 1 0 170.666666 0 85.333333 85.333333 0 0 0-170.666666 0z m0 298.666667a85.333333 85.333333 0 1 0 170.666666 0 85.333333 85.333333 0 0 0-170.666666 0z"  horiz-adv-x="1024" />

    
    <glyph glyph-name="mute1" unicode="&#59137;" d="M316.330667 469.333333H170.666667v-171.221333h145.109333l153.557333-153.6V622.378667L316.330667 469.333333z m-35.328 85.333334L554.666667 828.330667V-61.44l-274.218667 274.261333H85.333333V554.666667h195.669334z m448-149.333334l-119.168 119.168 60.330666 60.330667 119.168-119.168 119.168 119.168 60.330667-60.330667-119.168-119.168 119.168-119.168-60.330667-60.330666-119.168 119.168-119.168-119.168-60.330666 60.330666 119.168 119.168z"  horiz-adv-x="1024" />

    
    <glyph glyph-name="next1" unicode="&#59138;" d="M758.528 384L384 9.472l-60.330667 60.330667 313.984 314.453333-310.954666 310.912L386.986667 755.498667z"  horiz-adv-x="1024" />

    
    <glyph glyph-name="ocr" unicode="&#59139;" d="M102.4 793.6v-204.8H0V896h358.4v-102.4H102.4z m0-819.2h256v-102.4H0v307.2h102.4v-204.8zM921.6 793.6h-256V896h358.4v-307.2h-102.4V793.6z m0-819.2v204.8h102.4v-307.2h-358.4v102.4h256z"  horiz-adv-x="1024" />

    
    <glyph glyph-name="pause1" unicode="&#59140;" d="M597.333333 682.666667h85.333334v-554.666667h-85.333334V682.666667zM341.333333 682.666667h85.333334v-554.666667H341.333333V682.666667z"  horiz-adv-x="1024" />

    
    <glyph glyph-name="pin" unicode="&#59141;" d="M549.138793-61.857173L512-128l-37.138793 66.142827a5171.236202 5171.236202 0 0 0-40.37566 74.107225 5180.009816 5180.009816 0 0 0-88.587947 173.342761 3648.290147 3648.290147 0 0 0-35.137046 74.405357C248.876762 394.924427 213.867487 495.011771 213.867487 555.277128a298.132513 298.132513 0 1 0 596.265026 0c0-60.265358-35.009275-160.352701-96.893067-295.278958a3648.290147 3648.290147 0 0 0-35.179636-74.405357 5180.009816 5180.009816 0 0 0-128.921017-247.449986z m-34.796323 114.227343a5096.362351 5096.362351 0 0 1 87.139874 170.489207c12.095662 24.91536 23.595059 49.191865 34.327829 72.659152C692.199809 418.434305 724.951795 512.090505 724.951795 555.277128A212.951795 212.951795 0 0 1 299.048205 555.277128c0-43.186624 32.794576-136.842823 89.141622-259.801189 10.73277-23.424697 22.232167-47.701202 34.327829-72.616562A5096.362351 5096.362351 0 0 1 512 47.983363l2.34247 4.386807zM512 470.096411a85.180718 85.180718 0 1 0 0 170.361435 85.180718 85.180718 0 0 0 0-170.361435z"  horiz-adv-x="1024" />

    
    <glyph glyph-name="play1" unicode="&#59142;" d="M256 640v-554.666667l469.333333 277.333334L256 640z m43.392 73.472l469.333333-277.333333 124.330667-73.472-124.330667-73.472-469.333333-277.333334L170.666667-64.213333V789.546667l128.725333-76.074667z"  horiz-adv-x="1024" />

    
    <glyph glyph-name="search1" unicode="&#59143;" d="M768 448a362.666667 362.666667 0 1 1-725.333333 0 362.666667 362.666667 0 0 1 725.333333 0z m-640 0a277.333333 277.333333 0 1 0 554.666667 0 277.333333 277.333333 0 0 0-554.666667 0z m739.925333-525.568l-194.304 196.949333 60.757334 59.904 194.304-196.949333-60.757334-59.904z"  horiz-adv-x="1024" />

    
    <glyph glyph-name="redo" unicode="&#59144;" d="M785.066667 443.733333C706.133333 512.426667 603.733333 554.666667 490.666667 554.666667c-198.4 0-366.08-129.28-424.96-308.053334L166.4 213.333333a341.418667 341.418667 0 0 0 324.266667 234.666667c83.2 0 159.146667-30.72 218.453333-80.213333L554.666667 213.333333h384V597.333333l-153.6-153.6z"  horiz-adv-x="1024" />

    
    <glyph glyph-name="star1" unicode="&#59145;" d="M512 228.010667l151.808-80.554667-28.970667 170.581333 122.453334 120.490667-169.258667 24.832L512 618.837333l-76.032-155.477333-169.301333-24.832 122.496-120.490667-29.013334-170.581333L512 228.010667zM248.490667-8.106667l50.346666 296.234667L85.333333 498.176 380.373333 541.44 512 810.666667l131.626667-269.226667L938.666667 498.176l-213.504-210.048 50.346666-296.234667L512 131.754667 248.490667-8.106667z"  horiz-adv-x="1024" />

    
    <glyph glyph-name="soundon1" unicode="&#59146;" d="M316.330667 469.333333H170.666667v-171.221333h145.109333l153.557333-153.6V622.378667L316.330667 469.333333z m-35.328 85.333334L554.666667 828.330667V-61.44l-274.218667 274.261333H85.333333V554.666667h195.669334z m332.288-33.28l53.418666 66.56c13.781333-11.093333 32.725333-30.549333 51.456-58.069334 28.416-41.898667 46.72-89.941333 49.749334-143.445333 4.437333-77.994667-31.018667-172.885333-95.957334-246.357333l-63.914666 56.490666c50.474667 57.173333 77.781333 130.261333 74.666666 185.002667-2.048 36.864-14.890667 70.485333-35.157333 100.352-13.44 19.797333-26.624 33.322667-34.261333 39.466667z m133.376 85.333333l53.418666 66.56c18.432-14.848 44.373333-41.472 70.101334-79.36 39.04-57.472 64.128-123.306667 68.266666-196.522667 6.058667-106.88-43.050667-238.336-133.12-340.309333l-63.957333 56.490667C817.066667 199.253333 858.026667 308.906667 853.333333 392.576c-3.2 56.576-22.826667 107.946667-53.717333 153.429333a340.352 340.352 0 0 1-37.546667 46.208 198.272 198.272 0 0 1-15.36 14.506667z"  horiz-adv-x="1024" />

    
    <glyph glyph-name="success1" unicode="&#59147;" d="M896 384a384 384 0 1 1-768 0 384 384 0 0 1 768 0zM42.666667 384C42.666667 643.2 252.8 853.333333 512 853.333333s469.333333-210.133333 469.333333-469.333333-210.133333-469.333333-469.333333-469.333333S42.666667 124.8 42.666667 384z m652.501333 158.165333l60.330667-60.330666L469.333333 195.669333l-200.832 200.832 60.330667 60.330667L469.333333 316.330667l225.834667 225.834666z"  horiz-adv-x="1024" />

    
    <glyph glyph-name="remove1" unicode="&#59148;" d="M469.333333 444.330667l268.501334 268.501333 60.330666-60.330667L529.664 384l268.501333-268.501333-60.330666-60.330667L469.333333 323.669333l-268.501333-268.501333-60.330667 60.330667L409.002667 384 140.501333 652.501333l60.330667 60.330667z"  horiz-adv-x="1024" />

    
    <glyph glyph-name="settings1" unicode="&#59149;" d="M663.338667 644.821333a42.666667 42.666667 0 0 0-52.352 18.645334L551.253333 768h-78.506666l-59.733334-104.533333a42.666667 42.666667 0 0 0-52.352-18.645334l-94.549333 36.352-51.285333-51.285333 41.6-108.202667a42.666667 42.666667 0 0 0-22.485334-54.314666L128 420.266667v-72.533334l92.586667-41.130666a42.666667 42.666667 0 0 0 23.808-50.218667l-31.658667-116.181333 55.466667-55.466667 116.181333 31.658667a42.666667 42.666667 0 0 0 50.218667-23.808L475.733333 0h72.533334l41.130666 92.586667a42.666667 42.666667 0 0 0 50.218667 23.808l116.181333-31.658667 55.466667 55.466667-28.16 103.253333a42.666667 42.666667 0 0 0 20.053333 48.213333L896 344.746667v78.506666l-104.533333 59.733334a42.666667 42.666667 0 0 0-18.645334 52.352l36.352 94.549333-51.285333 51.285333-94.549333-36.352z m3.541333 92.8l86.229333 33.152a42.666667 42.666667 0 0 0 45.525334-9.642666l90.453333-90.496a42.666667 42.666667 0 0 0 9.685333-45.525334l-33.152-86.186666 94.208-53.888A42.666667 42.666667 0 0 0 981.333333 448v-128a42.666667 42.666667 0 0 0-21.504-37.034667l-85.674666-48.981333 25.941333-95.189333a42.666667 42.666667 0 0 0-10.965333-41.386667l-90.496-90.538667a42.666667 42.666667 0 0 0-41.386667-10.965333l-104.746667 28.544-37.546666-84.48A42.666667 42.666667 0 0 0 576-85.333333h-128a42.666667 42.666667 0 0 0-38.997333 25.344l-37.546667 84.437333-104.661333-28.586667a42.666667 42.666667 0 0 0-41.386667 11.008L134.826667 97.365333a42.666667 42.666667 0 0 0-10.965334 41.386667l28.544 104.746667-84.48 37.546666A42.666667 42.666667 0 0 0 42.666667 320v128a42.666667 42.666667 0 0 0 25.344 38.997333l94.250666 41.856-37.034666 96.256a42.666667 42.666667 0 0 0 9.642666 45.525334l90.496 90.453333a42.666667 42.666667 0 0 0 45.525334 9.685333l86.186666-33.152 53.888 94.208A42.666667 42.666667 0 0 0 448 853.333333h128a42.666667 42.666667 0 0 0 37.034667-21.504l53.845333-94.208zM512 213.333333a170.666667 170.666667 0 1 0 0 341.333334 170.666667 170.666667 0 0 0 0-341.333334z m0 85.333334a85.333333 85.333333 0 1 1 0 170.666666 85.333333 85.333333 0 0 1 0-170.666666z"  horiz-adv-x="1024" />

    
    <glyph glyph-name="up" unicode="&#59153;" d="M512 614.997333l-374.528-374.528 60.330667-60.330666 314.453333 313.984 310.912-310.954667 60.330667 60.330667z"  horiz-adv-x="1024" />

    
    <glyph glyph-name="undo" unicode="&#59158;" d="M533.333333 554.666667c-113.066667 0-215.466667-42.24-294.4-110.933334L85.333333 597.333333v-384h384l-154.453333 154.453334c59.306667 49.493333 134.826667 80.213333 218.453333 80.213333 151.04 0 279.466667-98.56 324.266667-234.666667l101.12 33.28C899.413333 425.386667 731.733333 554.666667 533.333333 554.666667z"  horiz-adv-x="1024" />

    
    <glyph glyph-name="vip" unicode="&#59159;" d="M490.666667 213.333333a320 320 0 1 0 0 640 320 320 0 0 0 0-640z m0 85.333334a234.666667 234.666667 0 1 1 0 469.333333 234.666667 234.666667 0 0 1 0-469.333333z m0 148.48l-92.288-48.512 17.621333 102.741333L341.333333 574.165333l103.168 15.018667L490.666667 682.666667l46.165333-93.482667L640 574.165333l-74.666667-72.789333 17.621334-102.741333L490.666667 447.146667zM384 142.165333V21.333333l106.666667 64 106.666666-64v120.832a402.688 402.688 0 0 1 85.333334 34.133334V-128l-192 106.666667L298.666667-128v304.256a402.688 402.688 0 0 1 85.333333-34.090667z"  horiz-adv-x="1024" />

    
    <glyph glyph-name="add" unicode="&#59150;" d="M554.666667 426.666667h298.666666v-85.333334h-298.666666v-298.666666h-85.333334v298.666666H170.666667v85.333334h298.666666V725.333333h85.333334v-298.666666z"  horiz-adv-x="1024" />

    
    <glyph glyph-name="arrowleft" unicode="&#59151;" d="M209.621333 341.333333l288.682667-267.349333-57.941333-62.634667L29.226667 392.106667l411.818666 365.141333 56.576-63.829333L196.821333 426.666667H960v-85.333334z"  horiz-adv-x="1024" />

    
    <glyph glyph-name="arrowright" unicode="&#59152;" d="M814.378667 341.333333H64v85.333334h763.178667l-300.8 266.752 56.576 63.829333 411.818666-365.141333-411.136-380.757334-57.941333 62.634667z"  horiz-adv-x="1024" />

    
    <glyph glyph-name="back" unicode="&#59154;" d="M238.336 384l374.528-374.528 60.330667 60.330667-313.984 314.453333 310.954666 310.912-60.330666 60.330667z"  horiz-adv-x="1024" />

    
    <glyph glyph-name="correct" unicode="&#59155;" d="M396.8 215.637333l-181.418667 180.224-72.362666-72.490666 236.458666-255.573334L880.938667 552.533333 808.618667 625.066667z"  horiz-adv-x="1024" />

    
    <glyph glyph-name="download" unicode="&#59156;" d="M554.666667 353.749333l140.501333 140.501334 60.330667-60.330667L512 190.421333 268.501333 433.92l60.330667 60.330667L469.333333 353.749333V768h85.333334v-414.250667zM85.333333 213.333333h85.333334v-85.333333h682.666666v85.333333h85.333334v-170.666666H85.333333v170.666666z"  horiz-adv-x="1024" />

    
    <glyph glyph-name="error" unicode="&#59157;" d="M896 384a384 384 0 1 1-768 0 384 384 0 0 1 768 0zM42.666667 384C42.666667 643.2 252.8 853.333333 512 853.333333s469.333333-210.133333 469.333333-469.333333-210.133333-469.333333-469.333333-469.333333S42.666667 124.8 42.666667 384z m469.333333-60.330667l-140.501333-140.501333-60.330667 60.330667L451.669333 384 311.168 524.501333l60.330667 60.330667L512 444.330667l140.501333 140.501333 60.330667-60.330667L572.330667 384l140.501333-140.501333-60.330667-60.330667L512 323.669333z"  horiz-adv-x="1024" />

    
    <glyph glyph-name="like" unicode="&#59165;" d="M0 534.588235h240.941176v-662.588235H0v120.470588h120.470588V414.117647H0V534.588235z m625.543529 227.388236L444.958118 491.038118A172.815059 172.815059 0 0 0 301.176471 414.117647V534.588235c17.468235 0 33.852235 8.734118 43.550117 23.311059L570.127059 896H602.352941a147.094588 147.094588 0 0 0 139.504941-193.596235L685.899294 534.588235h262.987294a120.470588 120.470588 0 0 0 117.63953-146.612706l-72.764236-327.318588A240.941176 240.941176 0 0 0 758.543059-128H301.176471v120.470588h457.366588a120.470588 120.470588 0 0 1 117.639529 94.328471L948.886588 414.117647h-430.08l108.784941 326.415059a26.624 26.624 0 0 1-2.048 21.443765z"  horiz-adv-x="1084" />

    
    <glyph glyph-name="mute" unicode="&#59167;" d="M316.330667 469.333333H170.666667v-171.221333h145.109333l153.557333-153.6V622.378667L316.330667 469.333333z m-35.328 85.333334L554.666667 828.330667V-61.44l-274.218667 274.261333H85.333333V554.666667h195.669334z m448-149.333334l-119.168 119.168 60.330666 60.330667 119.168-119.168 119.168 119.168 60.330667-60.330667-119.168-119.168 119.168-119.168-60.330667-60.330666-119.168 119.168-119.168-119.168-60.330666 60.330666 119.168 119.168z"  horiz-adv-x="1024" />

    
    <glyph glyph-name="next" unicode="&#59168;" d="M758.528 384L384 9.472l-60.330667 60.330667 313.984 314.453333-310.954666 310.912L386.986667 755.498667z"  horiz-adv-x="1024" />

    
    <glyph glyph-name="menu" unicode="&#59169;" d="M85.333333 85.333333v85.333334h853.333334v-85.333334H85.333333z m0 256v85.333334h853.333334v-85.333334H85.333333z m0 256V682.666667h853.333334v-85.333334H85.333333z"  horiz-adv-x="1024" />

    
    <glyph glyph-name="pause" unicode="&#59170;" d="M597.333333 682.666667h85.333334v-554.666667h-85.333334V682.666667zM341.333333 682.666667h85.333334v-554.666667H341.333333V682.666667z"  horiz-adv-x="1024" />

    
    <glyph glyph-name="play" unicode="&#59171;" d="M256 640v-554.666667l469.333333 277.333334L256 640z m43.392 73.472l469.333333-277.333333 124.330667-73.472-124.330667-73.472-469.333333-277.333334L170.666667-64.213333V789.546667l128.725333-76.074667z"  horiz-adv-x="1024" />

    
    <glyph glyph-name="remove" unicode="&#59172;" d="M469.333333 444.330667l268.501334 268.501333 60.330666-60.330667L529.664 384l268.501333-268.501333-60.330666-60.330667L469.333333 323.669333l-268.501333-268.501333-60.330667 60.330667L409.002667 384 140.501333 652.501333l60.330667 60.330667z"  horiz-adv-x="1024" />

    
    <glyph glyph-name="refresh" unicode="&#59173;" d="M512 768c192.426667 0 341.333333-128 341.333333-341.333333h-85.333333c0 128-91.093333 256-256 256-99.498667 0-170.666667-21.333333-234.666667-85.333334H384v-85.333333H128V768h85.333333v-106.666667C282.624 744.618667 398.208 768 512 768z m-42.666667-725.333333c-192.426667 0-341.333333 128-341.333333 341.333333h85.333333c0-128 91.093333-256 256-256 99.498667 0 170.666667 21.333333 234.666667 85.333333H597.333333v85.333334h256v-256h-85.333333v106.666666c-69.290667-83.285333-184.874667-106.666667-298.666667-106.666666z"  horiz-adv-x="1024" />

    
    <glyph glyph-name="search" unicode="&#59174;" d="M768 448a362.666667 362.666667 0 1 1-725.333333 0 362.666667 362.666667 0 0 1 725.333333 0z m-640 0a277.333333 277.333333 0 1 0 554.666667 0 277.333333 277.333333 0 0 0-554.666667 0z m739.925333-525.568l-194.304 196.949333 60.757334 59.904 194.304-196.949333-60.757334-59.904z"  horiz-adv-x="1024" />

    
    <glyph glyph-name="star" unicode="&#59175;" d="M512 228.010667l151.808-80.554667-28.970667 170.581333 122.453334 120.490667-169.258667 24.832L512 618.837333l-76.032-155.477333-169.301333-24.832 122.496-120.490667-29.013334-170.581333L512 228.010667zM248.490667-8.106667l50.346666 296.234667L85.333333 498.176 380.373333 541.44 512 810.666667l131.626667-269.226667L938.666667 498.176l-213.504-210.048 50.346666-296.234667L512 131.754667 248.490667-8.106667z"  horiz-adv-x="1024" />

    
    <glyph glyph-name="soundon" unicode="&#59176;" d="M316.330667 469.333333H170.666667v-171.221333h145.109333l153.557333-153.6V622.378667L316.330667 469.333333z m-35.328 85.333334L554.666667 828.330667V-61.44l-274.218667 274.261333H85.333333V554.666667h195.669334z m332.288-33.28l53.418666 66.56c13.781333-11.093333 32.725333-30.549333 51.456-58.069334 28.416-41.898667 46.72-89.941333 49.749334-143.445333 4.437333-77.994667-31.018667-172.885333-95.957334-246.357333l-63.914666 56.490666c50.474667 57.173333 77.781333 130.261333 74.666666 185.002667-2.048 36.864-14.890667 70.485333-35.157333 100.352-13.44 19.797333-26.624 33.322667-34.261333 39.466667z m133.376 85.333333l53.418666 66.56c18.432-14.848 44.373333-41.472 70.101334-79.36 39.04-57.472 64.128-123.306667 68.266666-196.522667 6.058667-106.88-43.050667-238.336-133.12-340.309333l-63.957333 56.490667C817.066667 199.253333 858.026667 308.906667 853.333333 392.576c-3.2 56.576-22.826667 107.946667-53.717333 153.429333a340.352 340.352 0 0 1-37.546667 46.208 198.272 198.272 0 0 1-15.36 14.506667z"  horiz-adv-x="1024" />

    
    <glyph glyph-name="upload" unicode="&#59177;" d="M554.666667 586.922667V170.666667h-85.333334V586.922667l-140.501333-140.501334-60.330667 60.330667L512 750.250667l243.498667-243.498667-60.330667-60.330667L554.666667 586.922667zM85.333333 170.666667h85.333334v-85.333334h682.666666v85.333334h85.333334v-170.666667H85.333333v170.666667z"  horiz-adv-x="1024" />

    
    <glyph glyph-name="turnoff" unicode="&#59178;" d="M384 703.488v-92.245333a298.666667 298.666667 0 1 1 256 0V703.488a384 384 0 1 0-256 0zM554.666667 810.666667v-469.333334h-85.333334V810.666667h85.333334z"  horiz-adv-x="1024" />

    
    <glyph glyph-name="time" unicode="&#59179;" d="M512 85.333333a298.666667 298.666667 0 1 1 0 597.333334 298.666667 298.666667 0 0 1 0-597.333334z m0-85.333333a384 384 0 1 0 0 768 384 384 0 0 0 0-768z m-42.666667 366.336V597.333333h85.333334v-194.986666l115.498666-116.181334-60.330666-60.330666L469.333333 366.336z"  horiz-adv-x="1024" />

    
    <glyph glyph-name="success" unicode="&#59180;" d="M896 384a384 384 0 1 1-768 0 384 384 0 0 1 768 0zM42.666667 384C42.666667 643.2 252.8 853.333333 512 853.333333s469.333333-210.133333 469.333333-469.333333-210.133333-469.333333-469.333333-469.333333S42.666667 124.8 42.666667 384z m652.501333 158.165333l60.330667-60.330666L469.333333 195.669333l-200.832 200.832 60.330667 60.330667L469.333333 316.330667l225.834667 225.834666z"  horiz-adv-x="1024" />

    
    <glyph glyph-name="settings" unicode="&#59181;" d="M663.338667 644.821333a42.666667 42.666667 0 0 0-52.352 18.645334L551.253333 768h-78.506666l-59.733334-104.533333a42.666667 42.666667 0 0 0-52.352-18.645334l-94.549333 36.352-51.285333-51.285333 41.6-108.202667a42.666667 42.666667 0 0 0-22.485334-54.314666L128 420.266667v-72.533334l92.586667-41.130666a42.666667 42.666667 0 0 0 23.808-50.218667l-31.658667-116.181333 55.466667-55.466667 116.181333 31.658667a42.666667 42.666667 0 0 0 50.218667-23.808L475.733333 0h72.533334l41.130666 92.586667a42.666667 42.666667 0 0 0 50.218667 23.808l116.181333-31.658667 55.466667 55.466667-28.16 103.253333a42.666667 42.666667 0 0 0 20.053333 48.213333L896 344.746667v78.506666l-104.533333 59.733334a42.666667 42.666667 0 0 0-18.645334 52.352l36.352 94.549333-51.285333 51.285333-94.549333-36.352z m3.541333 92.8l86.229333 33.152a42.666667 42.666667 0 0 0 45.525334-9.642666l90.453333-90.496a42.666667 42.666667 0 0 0 9.685333-45.525334l-33.152-86.186666 94.208-53.888A42.666667 42.666667 0 0 0 981.333333 448v-128a42.666667 42.666667 0 0 0-21.504-37.034667l-85.674666-48.981333 25.941333-95.189333a42.666667 42.666667 0 0 0-10.965333-41.386667l-90.496-90.538667a42.666667 42.666667 0 0 0-41.386667-10.965333l-104.746667 28.544-37.546666-84.48A42.666667 42.666667 0 0 0 576-85.333333h-128a42.666667 42.666667 0 0 0-38.997333 25.344l-37.546667 84.437333-104.661333-28.586667a42.666667 42.666667 0 0 0-41.386667 11.008L134.826667 97.365333a42.666667 42.666667 0 0 0-10.965334 41.386667l28.544 104.746667-84.48 37.546666A42.666667 42.666667 0 0 0 42.666667 320v128a42.666667 42.666667 0 0 0 25.344 38.997333l94.250666 41.856-37.034666 96.256a42.666667 42.666667 0 0 0 9.642666 45.525334l90.496 90.453333a42.666667 42.666667 0 0 0 45.525334 9.685333l86.186666-33.152 53.888 94.208A42.666667 42.666667 0 0 0 448 853.333333h128a42.666667 42.666667 0 0 0 37.034667-21.504l53.845333-94.208zM512 213.333333a170.666667 170.666667 0 1 0 0 341.333334 170.666667 170.666667 0 0 0 0-341.333334z m0 85.333334a85.333333 85.333333 0 1 1 0 170.666666 85.333333 85.333333 0 0 1 0-170.666666z"  horiz-adv-x="1024" />

    
    <glyph glyph-name="product-add" unicode="&#58883;" d="M885.9 544v-532.7H139.2V757h634.7V832.2H120.4C89.3 832.2 64 806.9 64 775.8v-783.3c0-31.1 25.3-56.4 56.4-56.4h784.3c31.1 0 56.4 25.3 56.4 56.4V544h-75.2z m0 0M773.6 354.3c8.3 8.3 12.8 19.3 12.8 30.9 0 11.7-4.6 22.7-12.8 30.9-8.3 8.3-19.3 12.8-30.9 12.8H555V616.7c0 11.7-4.6 22.7-12.8 30.9-8.3 8.3-19.3 12.8-30.9 12.8-11.7 0-22.7-4.6-30.9-12.8-8.3-8.3-12.8-19.3-12.8-30.9v-187.8H279.7c-11.7 0-22.7-4.6-30.9-12.8-8.3-8.3-12.8-19.3-12.8-30.9 0-11.7 4.6-22.7 12.8-30.9 8.3-8.3 19.3-12.8 30.9-12.8h187.8v-187.8c0-24.1 19.6-43.8 43.8-43.8 11.7 0 22.7 4.6 30.9 12.8 8.3 8.3 12.8 19.3 12.8 30.9V341.4h187.8c11.6 0 22.6 4.6 30.8 12.9z m0 0"  horiz-adv-x="1024" />

    
    <glyph glyph-name="user" unicode="&#58889;" d="M504.951 384.02c93.49 0 169.28 74.002 169.28 165.26 0 91.276-75.79 165.248-169.28 165.248-93.486 0-169.287-73.972-169.279-165.248-0.001-91.258 75.793-165.26 169.28-165.26z m77.6-55.098H441.466c-120.767 0-218.678-95.564-218.678-213.45V101.7c0-48.183 97.911-48.229 218.678-48.229H582.55c120.754 0 218.66 1.78 218.66 48.229v13.77c0 117.887-97.898 213.45-218.66 213.45z"  horiz-adv-x="1024" />

    


  </font>
</defs>
</svg>
